<?xml version="1.0" encoding="UTF-8"?>
<svg xmlns="http://www.w3.org/2000/svg" xmlns:xlink="http://www.w3.org/1999/xlink" width="20px" height="20px" viewBox="0 0 20 20" version="1.1">
<g id="surface1">
<path style=" stroke:none;fill-rule:nonzero;fill:rgb(100%,100%,100%);fill-opacity:1;" d="M 11.054688 10.800781 L 17.699219 10.800781 C 18.253906 10.800781 18.699219 11.25 18.699219 11.800781 L 18.699219 12.550781 C 18.699219 13.101562 18.253906 13.550781 17.699219 13.550781 L 11.054688 13.550781 C 10.503906 13.550781 10.054688 13.101562 10.054688 12.550781 L 10.054688 11.800781 C 10.054688 11.25 10.503906 10.800781 11.054688 10.800781 Z M 11.054688 10.800781 "/>
<path style=" stroke:none;fill-rule:nonzero;fill:rgb(100%,100%,100%);fill-opacity:1;" d="M 2.199219 15.152344 L 12.640625 15.152344 C 13.191406 15.152344 13.640625 15.597656 13.640625 16.152344 L 13.640625 16.902344 C 13.640625 17.453125 13.191406 17.902344 12.640625 17.902344 L 2.199219 17.902344 C 1.648438 17.902344 1.199219 17.453125 1.199219 16.902344 L 1.199219 16.152344 C 1.199219 15.597656 1.648438 15.152344 2.199219 15.152344 Z M 2.199219 15.152344 "/>
<path style=" stroke:none;fill-rule:nonzero;fill:rgb(100%,100%,100%);fill-opacity:1;" d="M 18.699219 3.472656 C 18.699219 3.125 18.699219 2.953125 18.65625 2.808594 C 18.558594 2.488281 18.308594 2.238281 17.988281 2.144531 C 17.847656 2.097656 17.675781 2.097656 17.324219 2.097656 L 7.003906 2.097656 C 6.652344 2.097656 6.480469 2.097656 6.339844 2.144531 C 6.019531 2.238281 5.769531 2.488281 5.667969 2.808594 C 5.628906 2.953125 5.628906 3.125 5.628906 3.472656 C 5.628906 3.824219 5.628906 3.996094 5.667969 4.136719 C 5.769531 4.457031 6.019531 4.707031 6.339844 4.804688 C 6.480469 4.847656 6.652344 4.847656 7.003906 4.847656 L 17.324219 4.847656 C 17.675781 4.847656 17.847656 4.847656 17.988281 4.804688 C 18.308594 4.707031 18.558594 4.457031 18.65625 4.136719 C 18.699219 3.996094 18.699219 3.824219 18.699219 3.472656 Z M 18.699219 3.472656 "/>
<path style=" stroke:none;fill-rule:nonzero;fill:rgb(100%,100%,100%);fill-opacity:1;" d="M 2.199219 6.449219 L 11.585938 6.449219 C 12.136719 6.449219 12.585938 6.898438 12.585938 7.449219 L 12.585938 8.199219 C 12.585938 8.75 12.136719 9.199219 11.585938 9.199219 L 2.199219 9.199219 C 1.648438 9.199219 1.199219 8.75 1.199219 8.199219 L 1.199219 7.449219 C 1.199219 6.898438 1.648438 6.449219 2.199219 6.449219 Z M 2.199219 6.449219 "/>
</g>
</svg>
